<?xml version="1.0" encoding="UTF-8" standalone="no"?>
<!-- Created with Inkscape (http://www.inkscape.org/) -->

<svg
   width="691.70502mm"
   height="22.945387mm"
   viewBox="0 0 691.70502 22.945387"
   version="1.1"
   id="svg1"
   xmlns="http://www.w3.org/2000/svg"
   xmlns:svg="http://www.w3.org/2000/svg">
  <defs
     id="defs1" />
  <g
     id="layer1"
     transform="translate(-0.69547183,0.33832194)">
    <g
       id="g2"
       transform="matrix(0.26458333,0,0,0.11904427,-51.115913,-266.19434)">
      <path
         id="path46"
         d="m 11204,1809.6 c -16.4,-5.5 -180.8,356.1 76.7,520.5 257.6,164.4 224.7,284.9 164.4,372.6 -60.3,87.6 -191.8,76.7 -191.8,76.7 0,0 109.6,98.6 224.7,27.4 115,-71.3 219.1,-284.9 65.7,-531.5 -153.4,-246.5 312.3,-186.3 219.2,71.2 -93.2,257.5 10.9,345.2 10.9,345.2 0,0 -27.4,-142.4 38.4,-158.9 65.7,-16.4 263,71.2 109.6,191.8 -153.4,120.5 -169.9,246.5 -32.9,334.2 0,0 -87.7,-147.9 16.4,-208.2 104.1,-60.3 208.2,-131.5 224.7,-230.1 16.4,-98.6 -93.2,-191.8 -93.2,-191.8 0,0 328.8,-38.3 213.7,158.9 -115.1,197.2 -98.6,263 -27.4,312.3 71.2,49.3 142.5,-32.9 142.5,-32.9 0,0 -120.6,22 -98.7,-38.3 22,-60.3 197.3,-241.1 208.2,-372.6 11,-131.5 -301.3,-230.1 -87.6,-301.3 213.7,-71.3 328.7,-38.4 263,153.4 -65.8,191.7 -224.7,394.5 -104.1,432.8 120.5,38.4 147.9,98.6 54.8,126 0,0 169.8,76.7 186.2,-60.2 16.5,-137 -224.6,-213.7 -38.3,-252.1 186.3,-38.3 43.8,137 120.5,191.8 76.7,54.8 115.1,-11 115.1,-11 0,0 -98.6,5.5 -82.2,-76.7 16.4,-82.1 87.7,-98.6 54.8,-180.8 -32.9,-82.1 -109.6,-43.8 -115.1,-126 -5.5,-82.2 98.6,-224.6 158.9,-126 60.3,98.6 -54.8,120.5 -54.8,120.5 0,0 126,65.8 175.4,-54.8 49.3,-120.5 -93.2,-186.2 -43.9,-241 49.3,-54.8 279.4,82.2 153.4,257.5 -126,175.3 -104.1,295.8 27.4,378 0,0 -76.7,-115 -10.9,-175.3 65.7,-60.3 93.1,-54.8 169.8,-169.8 76.7,-115.1 -60.3,-164.4 27.4,-252.1 87.7,-87.6 279.4,202.7 115.1,350.7 -164.4,147.9 76.7,273.9 10.9,339.7 -65.7,65.7 -142.4,16.4 -142.4,16.4 0,0 115,126 197.2,54.8 82.2,-71.2 93.1,-126 65.8,-208.2 -27.4,-82.2 120.5,-164.4 126,-71.2 5.4,93.1 -16.5,224.6 54.8,246.5 71.2,21.9 126,-54.8 126,-54.8 0,0 -126,5.5 -104.1,-71.2 21.9,-76.7 104.1,-120.5 76.7,-213.7 -27.4,-93.1 147.9,-87.6 115,16.5 -32.8,104.1 87.7,164.3 87.7,164.3 0,0 -60.3,-49.3 -32.9,-104.1 27.4,-54.8 82.2,-38.3 54.8,-115 -27.4,-76.7 109.6,-87.7 98.6,-32.9 -10.9,54.8 -49.3,82.2 -49.3,82.2 0,0 158.9,-16.4 120.6,-142.5 -38.4,-126 -158.9,-175.3 -11,-279.4 147.9,-104.1 540.3,41.7 367.1,186.3 -171,142.7 -192.9,307.1 -110.7,438.6 0,0 -31.8,-115.3 34,-175.6 65.7,-60.3 169.8,-71.2 219.1,-180.8 49.4,-109.6 43.9,-131.5 43.9,-131.5 0,0 104.1,219.1 -27.4,301.3 -131.5,82.2 -186,163 -116.2,255.1 60.3,79.4 218.3,0.7 131.5,164.3 -62.2,117.3 -119.4,106.6 -108.5,210.7 11,104.1 109.6,115.1 109.6,115.1 0,0 -61.4,-65.5 -12,-142.2 50.6,-78.8 54.8,-68.5 123.2,-134.3 62,-59.4 60.3,-153.4 4.7,-215.2 -37.7,-41.8 27,-106.6 75.4,-77.8 19.6,11.6 37.4,36.4 22.4,76.4 -44,117.1 65.6,124.4 65.6,124.4 -29.3,-69.4 35.1,-93.3 29.2,-175.3 -7.5,-103.8 -67.4,-124.5 -105.8,-157.3 -38.3,-32.9 -84.3,-105.3 43.9,-142.5 169.8,-49.3 301.3,-257.5 219.1,-356.1 -82.2,-98.6 -60.3,-71.2 -60.3,-71.2 0,0 263,38.3 191.8,219.1 -71.2,180.8 -213.7,257.5 -175.3,345.2 38.3,87.6 109.6,115 109.6,115 0,0 -75,-117.7 -38.4,-164.3 60.3,-76.7 98.6,-104.1 158.9,-191.8 60.3,-87.7 54.8,-137 54.8,-137 0,0 32.9,197.3 -60.3,284.9 -93.1,87.7 -71.2,241.1 -21.9,312.3 49.3,71.3 16.4,142.5 -32.9,158.9 -49.3,16.5 -82.2,5.5 -82.2,5.5 0,0 82.2,98.6 158.9,32.9 76.7,-65.8 87.7,-153.4 60.3,-241.1 -27.4,-87.7 120.5,32.9 93.2,137 0,0 54.7,-54.8 38.3,-169.9 -7.3,-51.2 -17,-88.2 -25.5,-113.6 -4.7,-13.7 11.2,-25.3 22.9,-16.6 46.1,34.2 112.1,94.3 101.2,152.1 0,0 93.2,-43.8 104.1,-175.3 11,-131.5 -153.4,-273.9 -5.5,-345.1 148,-71.3 314.8,127.1 219.2,158.8 -50.4,16.7 -104.1,11 -104.1,11 0,0 103,98.9 168.7,27.7 65.8,-71.3 23.1,-159.2 23.1,-159.2 0,0 147.9,87.7 21.9,208.2 -126,120.5 93.1,323.3 93.1,323.3 0,0 -93.1,-131.5 -5.5,-213.7 87.7,-82.2 191.8,-54.8 224.7,-208.2 32.8,-153.4 -32.9,-219.2 -32.9,-219.2 0,0 131.5,11 115.1,120.6 -16.5,109.5 -131.5,268.4 -27.4,350.6 104.1,82.2 158.9,-60.3 158.9,-60.3 0,0 -38.4,43.9 -82.2,5.5 -43.9,-38.3 -49.3,-153.4 27.4,-202.7 76.7,-49.3 82.1,109.6 82.1,109.6 0,0 60.3,-16.5 60.3,-104.1 0,-87.7 -191.8,-169.9 -115,-252.1 76.7,-82.1 361.6,-144.2 449.2,177.2 87.7,321.4 -277.6,277.6 -270.3,445.6 7.3,168 233.8,190 233.8,190 0,0 -182.6,-124.2 -109.6,-182.7 73.1,-58.4 168,-21.9 270.3,-138.8 102.3,-116.9 131.5,-284.9 87.7,-379.8 -43.9,-95 263,-175.4 204.5,73 -58.4,248.4 36.6,336 36.6,336 0,0 -36.6,-292.2 51.1,-299.5 87.6,-7.3 109.6,299.5 -43.8,409.1 0,0 153.4,7.3 189.9,-109.6 36.5,-116.8 36.5,-204.5 36.5,-204.5 0,0 109.6,160.7 21.9,277.6 -87.6,116.9 -87.6,226.5 7.3,270.3 95,43.8 124.2,-29.2 124.2,-29.2 0,0 -134.4,42.2 -118,-94.7 9,-74.7 125.3,-117.2 147.2,-248.7 22,-131.5 233.8,-124.2 175.4,7.3 -58.5,131.5 -131.5,80.4 -131.5,80.4 0,0 -21.9,138.8 138.8,109.6 160.7,-29.3 248.4,-190 219.1,-314.2 -29.2,-124.1 -263,-168 -160.7,-277.6 102.3,-109.5 411.6,68.8 284.9,248.4 -122.3,173.5 63.9,310.5 63.9,310.5 0,0 -85.8,-149.8 16.5,-186.3 102.3,-36.5 116.9,-160.7 87.6,-211.8 -29.2,-51.2 124.2,14.6 58.5,146.1 -65.8,131.5 -65.8,131.5 -65.8,131.5 0,0 95,-29.3 138.8,-124.2 43.9,-95 14.6,-190 14.6,-190 0,0 80.4,80.4 36.6,168.1 -43.9,87.6 -58.5,94.9 -43.9,87.6 14.6,-7.3 121.3,-87.4 121.3,-153.1 0,-65.8 -26.3,-80.6 -70.1,-197.5 -43.9,-116.9 139.5,-250 212.6,-103.9 73,146.1 65,213.4 -22.7,308.4 -87.7,95 -116.9,160.7 -29.2,277.6 87.7,116.9 -109.6,160.7 -109.6,160.7 0,0 165.2,50.1 254.6,-67.3 87.7,-115 -123.1,-137.2 -35.4,-232.2 87.6,-95 226.4,-87.7 175.3,58.5 -51.1,146.1 87.7,138.8 87.7,138.8 0,0 -80.4,-73.1 -43.9,-95 36.5,-21.9 87.7,-65.8 73.1,-146.1 -14.6,-80.4 -109.6,-95 -109.6,-182.6 0,-87.7 138.8,-190 175.3,-80.4 36.5,109.6 -87.6,95 -87.6,95 0,0 7.3,98.7 107.7,69.4 131.5,-38.4 -65.7,-235.6 202.7,-186.3 72.2,13.2 -215.4,172.9 -145.3,336.3 65.7,153.4 39.4,226.2 -33.6,248.1 -73.1,21.9 -14.7,131.5 94.9,160.7 0,0 -109.6,-87.7 -36.5,-95 73,-7.3 121.3,-92.8 106.7,-144 -14.7,-51.1 -70.2,-118.9 -19,-199.3 51.1,-80.4 146.1,-109.6 109.5,21.9 -36.5,131.5 -65.7,189.9 -7.3,270.3 58.5,80.4 -43.8,102.3 -43.8,102.3 0,0 109.6,21.9 102.3,-73.1 -7.3,-94.9 -43.9,-131.5 0,-168 43.8,-36.5 69.4,-126 58.4,-226.5 -8.1,-74.7 51.1,-182.6 73.1,-80.3 21.9,102.3 -36.6,189.9 -36.6,270.3 0,80.3 73.1,80.3 73.1,80.3 0,0 -58.5,-65.7 -14.6,-102.2 43.8,-36.6 94.9,-102.3 80.3,-204.6 -0.7,-5.5 -1.3,-10.6 -1.8,-15.5 -4.3,-47.2 66.4,-56 72.5,-9 1.5,11.7 1.9,25.3 0.6,41 -7.3,87.6 -42,93.1 -42,93.1 102.2,21.9 184,-140.3 140.6,-230.1 -41.4,-85.8 -213.7,-84 -89.5,-135.2 v 0 c 72.6,-29.9 154.6,13.6 170.5,90.5 13.1,63.1 16,133.5 -17.1,179.8 -73,102.3 21.9,204.6 21.9,204.6 0,0 -51.1,-138.8 14.6,-182.7 65.8,-43.8 87.7,-102.2 87.7,-102.2 0,0 -116.9,153.4 -51.1,263 65.7,109.5 -51.2,204.5 -51.2,204.5 0,0 121.3,18.5 179.7,-76.4 58.5,-95 -92,-252.3 -19,-288.9 73.1,-36.5 138.8,51.2 95,109.6 -43.8,58.5 -10.2,80.6 -10.2,80.6 0,0 83.3,29 105.2,-95.2 21.9,-124.2 -109.6,-189.9 36.5,-255.7 146.1,-65.7 189.8,-229.8 69.2,-257.2 -106.8,-24.3 -47.3,-100.7 -47.3,-100.7 0,0 87.7,-51.2 124.2,21.9 v 0 c 18.8,37.6 74.3,32.9 86.1,-7.4 7.5,-25.7 6.6,-53.8 -15.1,-78.2 -58.4,-65.7 -136.7,-60.5 -136.7,-60.5 l -9716,-5.5"
         style="fill:#ff4d49;fill-opacity:1;fill-rule:nonzero;stroke:none"
         transform="matrix(0.13333333,0,0,-0.13333333,0,2666.6667)" />
      <path
         id="path47"
         d="m 11204,1809.6 c 0,0 -49.8,186 62.1,239.3 141.9,67.5 54.8,164.3 54.8,164.3 0,0 104.1,-60.2 82.2,-137 -21.9,-76.7 93.1,-191.7 241.1,-65.7 147.9,126 246.5,32.9 273.9,120.5 27.4,87.7 -27.4,153.4 -27.4,153.4 0,0 104.1,-21.9 104.1,-104.1 0,-82.1 5.5,-126 54.8,-87.6 49.3,38.3 5.5,158.9 76.7,202.7 71.2,43.8 137,16.4 137,16.4 0,0 -98.6,-49.3 -98.6,-98.6 0,-49.3 65.7,-115 27.4,-186.3 -38.4,-71.2 16.4,-136.9 98.6,-104.1 82.2,32.9 27.4,104.1 115,115.1 87.7,11 82.2,-65.7 82.2,-65.7 0,0 -43.8,27.3 -65.7,-11 -21.9,-38.4 5.5,-98.6 76.7,-65.8 71.2,32.9 5.5,142.5 115,142.5 109.6,0 175.4,21.9 164.4,82.2 -11,60.2 -27.4,98.6 -27.4,98.6 0,0 158.9,-54.8 104.1,-147.9 -54.8,-93.2 -60.3,-153.4 -5.5,-137 54.8,16.4 38.4,93.1 76.7,131.5 38.4,38.3 82.2,21.9 82.2,21.9 0,0 -65.7,-38.3 -54.8,-82.2 11,-43.8 65.8,-60.2 32.9,-104.1 -32.9,-43.8 104.1,-65.7 104.1,11 0,76.7 147.9,71.2 147.9,71.2 0,0 -115,-65.7 -54.8,-76.7 60.3,-11 186.3,27.4 153.5,93.1 -32.9,65.8 -32.9,153.5 -5.5,202.8 27.4,49.3 43.8,60.2 43.8,60.2 0,0 -49.3,-126 -11,-169.8 38.4,-43.8 120.6,-49.3 109.6,-137 -10.9,-87.6 104.1,-71.2 142.5,65.8 38.3,136.9 115,180.8 191.7,180.8 76.7,0 76.7,142.4 -16.4,142.4 -93.1,0 -60.3,76.7 16.4,109.6 0,0 -49.3,-71.2 11,-60.3 60.3,11 126,-16.4 137,-82.2 10.9,-65.7 -32.9,-126 43.8,-115 76.7,10.9 0,104.1 65.7,142.4 65.8,38.4 71.3,98.7 71.3,98.7 0,0 38.3,-60.3 0,-93.2 -38.4,-32.9 -60.3,-60.3 -21.9,-109.6 38.3,-49.3 104.1,-76.7 38.3,-131.5 -65.7,-54.7 -115.1,-115 -16.4,-142.4 98.6,-27.4 65.7,98.6 65.7,98.6 0,0 82.2,0 82.2,-54.8 0,-54.8 11,-115 180.8,-126 169.9,-10.9 186.3,109.6 290.4,137 104.1,27.4 126,-60.3 202.7,0 76.7,60.2 32.9,164.3 32.9,164.3 0,0 109.6,-10.9 98.6,-98.6 -11,-87.6 60.3,-87.6 76.7,-27.4 16.4,60.3 38.4,175.4 -54.8,230.1 0,0 147.9,-10.9 158.9,-120.5 11,-109.6 0,-180.8 -76.7,-241.1 -76.7,-60.2 126,-43.8 224.6,5.5 98.7,49.3 180.8,158.9 263,104.1 82.2,-54.8 169.9,38.4 104.1,131.5 -65.7,93.2 -98.6,-10.9 -98.6,-10.9 0,0 -16.4,136.9 82.2,104.1 98.6,-32.9 147.9,-82.2 142.4,-164.4 -5.4,-82.2 16.5,-158.9 93.2,-109.6 76.7,49.3 71.2,186.3 191.7,153.4 0,0 -82.1,-38.3 -38.3,-82.2 43.8,-43.8 158.9,-5.4 142.4,76.7 -16.4,82.2 76.7,71.3 76.7,71.3 0,0 -54.7,-32.9 -32.8,-54.8 21.9,-21.9 87.6,-60.3 38.3,-126 -49.3,-65.8 -49.3,-131.5 27.4,-115.1 76.7,16.4 27.4,115.1 54.8,147.9 27.4,32.9 71.2,21.9 71.2,21.9 0,0 -54.8,-54.7 -27.4,-71.2 27.4,-16.4 82.2,-65.7 60.3,-104.1 -21.9,-38.3 98.6,38.4 65.7,93.2 -32.8,54.8 -32.8,54.8 -32.8,54.8 0,0 98.6,49.3 126,-49.4 27.4,-98.6 109.6,-120.5 175.3,-76.7 65.8,43.9 -10.9,202.8 -10.9,202.8 0,0 71.2,-22 93.1,-71.3 0,0 87.7,126 5.5,169.9 -82.2,43.8 38.3,131.5 38.3,131.5 0,0 -49.3,-71.3 -5.4,-87.7 43.8,-16.4 153.4,-49.3 120.5,-153.4 -32.9,-104.1 -38.4,-142.4 21.9,-158.9 60.3,-16.4 76.7,93.2 60.3,115.1 -16.5,21.9 27.4,76.7 76.7,93.1 0,0 -38.4,-43.8 -21.9,-76.7 16.4,-32.9 65.7,-43.8 49.3,-115 -16.5,-71.3 120.5,-98.7 142.4,0 21.9,98.6 65.8,49.3 175.3,43.8 109.6,-5.5 213.7,49.3 164.4,137 -49.3,87.6 -87.6,27.3 -87.6,27.3 0,0 5.4,87.7 93.1,49.4 87.7,-38.4 43.8,-148 98.6,-153.5 54.8,-5.4 -38.3,158.9 49.3,191.8 87.7,32.9 60.3,98.6 43.9,147.9 -16.5,49.3 54.7,115.1 54.7,115.1 0,0 -21.9,-98.6 16.5,-131.5 38.3,-32.9 54.8,-120.5 10.9,-158.9 -43.8,-38.3 -38.3,-82.2 5.5,-98.6 43.8,-16.4 175.3,54.8 126,153.4 -49.3,98.6 71.3,142.5 71.3,142.5 0,0 -76.8,-76.8 -32.9,-109.6 43.8,-32.9 120.5,-224.7 -60.3,-290.4 -180.8,-65.7 82.2,-208.2 164.4,-87.7 82.2,120.6 0,153.4 0,153.4 0,0 120.5,22 104.1,-76.7 -16.5,-98.6 109.6,-126 131.5,-10.9 21.9,115 120.5,137 120.5,137 0,0 -98.6,-142.5 -21.9,-169.9 76.7,-27.4 180.8,65.8 120.5,169.9 -60.2,104.1 38.4,147.9 38.4,147.9 0,0 -21.9,-87.7 16.4,-109.6 38.4,-21.9 137,-126 87.7,-202.7 -49.3,-76.7 104.1,-115.1 93.1,-27.4 -10.9,87.7 -10.9,153.4 60.3,202.7 71.2,49.3 180.8,27.4 180.8,27.4 0,0 -142.5,-82.2 -109.6,-164.4 32.9,-82.1 208.2,-164.3 257.5,-16.4 49.3,147.9 -109.6,60.3 -109.6,60.3 0,0 38.4,115 142.5,76.7 104.1,-38.4 27.4,-180.8 93.1,-197.3 65.8,-16.4 22,71.3 76.7,137 54.8,65.8 120.6,21.9 120.6,21.9 0,0 -109.6,-49.3 -65.8,-104.1 43.9,-54.8 137,-16.4 126,32.9 -10.9,49.3 -10.9,49.3 -10.9,49.3 0,0 60.3,-11 60.3,-54.8 0,-43.8 104.1,-10.9 65.7,54.8 -38.4,65.8 43.8,142.5 -16.4,219.2 -60.3,76.7 -126,65.7 -126,65.7 0,0 76.7,60.3 136.9,5.5 60.3,-54.8 98.6,-137 82.2,-202.7 -16.4,-65.8 27.4,-126 82.2,-120.6 54.8,5.5 76.7,120.6 27.4,175.4 -49.3,54.7 43.8,93.1 43.8,93.1 0,0 -32.9,-43.8 -16.4,-71.2 16.4,-27.4 98.6,-93.2 65.7,-153.4 -32.8,-60.3 -16.4,-180.8 43.9,-158.9 60.2,21.9 -27.4,131.5 71.2,153.4 0,0 16.4,-153.4 126,-65.8 109.6,87.7 16.4,153.4 16.4,153.4 0,0 104.1,54.8 115.1,-43.8 11,-98.6 -54.8,-147.9 -11,-158.9 43.9,-10.9 169.9,104.1 82.2,219.2 -87.6,115 -120.5,60.3 -120.5,60.3 0,0 49.3,109.5 153.4,49.3 104.1,-60.3 153.4,-219.2 109.6,-301.4 -43.9,-82.2 10.9,-126 60.2,-109.6 49.4,16.5 49.4,16.5 49.4,16.5 0,0 10.9,-71.2 -60.3,-71.2 -71.2,0 -93.2,-32.9 -93.2,-32.9 l -9562.5,1.8"
         style="fill:#ff9331;fill-opacity:1;fill-rule:nonzero;stroke:none"
         transform="matrix(0.13333333,0,0,-0.13333333,0,2666.6667)" />
      <path
         id="path48"
         d="m 11204,1809.6 c 0,0 36.6,120.5 146.1,98.6 109.6,-21.9 124.2,138.8 124.2,138.8 0,0 79.5,-42 57.6,-118.7 -22,-76.7 139.7,-52 90.4,30.2 -49.4,82.1 38.3,131.4 38.3,131.4 0,0 -46.6,-57.5 -8.2,-90.4 38.3,-32.8 98.6,-38.3 109.6,-87.6 10.9,-49.3 54.8,-71.2 84.9,-54.8 30.1,16.4 21.9,98.6 -32.9,120.5 0,0 63,16.5 95.9,-38.3 32.9,-54.8 -5.5,-134.3 -5.5,-134.3 l -700.4,4.6"
         style="fill:#ffd45a;fill-opacity:1;fill-rule:nonzero;stroke:none"
         transform="matrix(0.13333333,0,0,-0.13333333,0,2666.6667)" />
      <path
         id="path49"
         d="m 12123.6,2139.3 c 0,0 16.4,-115.1 -54.8,-123.3 -71.2,-8.2 -93.2,35.6 -93.2,35.6 0,0 -19.1,-49.3 13.7,-74 32.9,-24.6 104.1,-5.4 82.2,-41.1 -21.9,-35.6 -82.2,-27.4 -82.2,-27.4 0,0 98.7,-76.7 134.3,0 35.6,76.7 0,85 0,85 0,0 46.5,30.1 38.3,68.5 -8.2,38.3 -38.3,76.7 -38.3,76.7"
         style="fill:#ffe650;fill-opacity:1;fill-rule:nonzero;stroke:none"
         transform="matrix(0.13333333,0,0,-0.13333333,0,2666.6667)" />
      <path
         id="path50"
         d="m 12400.3,2226.9 c 0,0 -41.1,-150.7 -85,-112.3 -43.8,38.4 -30.1,71.2 -30.1,71.2 0,0 -52,-65.7 -21.9,-106.8 30.1,-41.1 41.1,-65.8 13.7,-79.5 -27.4,-13.7 84.9,22 68.5,46.6 -16.5,24.7 52,-21.9 60.2,54.8 8.3,76.7 -5.4,126 -5.4,126"
         style="fill:#ffe650;fill-opacity:1;fill-rule:nonzero;stroke:none"
         transform="matrix(0.13333333,0,0,-0.13333333,0,2666.6667)" />
      <path
         id="path51"
         d="m 11983.9,2509.1 c 0,0 -49.3,-71.2 -106.9,-57.6 -57.5,13.7 -79.4,2.8 -35.6,-41 43.8,-43.9 63,-115.1 79.5,-60.3 16.4,54.8 82.1,57.5 71.2,90.4 -11,32.9 -8.2,68.5 -8.2,68.5"
         style="fill:#ffe650;fill-opacity:1;fill-rule:nonzero;stroke:none"
         transform="matrix(0.13333333,0,0,-0.13333333,0,2666.6667)" />
      <path
         id="path52"
         d="m 11496.2,2448.8 c -46.5,-46.6 -136.9,-84.9 -117.8,-115 19.2,-30.2 90.4,-68.5 54.8,-87.7 -35.6,-19.2 109.6,0 74,49.3 -35.6,49.3 -76.7,63 -32.9,90.4 43.9,27.4 21.9,63 21.9,63"
         style="fill:#ffe650;fill-opacity:1;fill-rule:nonzero;stroke:none"
         transform="matrix(0.13333333,0,0,-0.13333333,0,2666.6667)" />
      <path
         id="path53"
         d="m 12688.9,2514.7 c -24.5,-2.5 -48.4,-46.9 -42.1,-49.5 6.3,-2.5 35.8,-8.9 35.8,-8.9 l 10.5,-7.6 c 0,0 52.5,-53.4 23.1,-63.5 -29.4,-10.2 -25.2,-25.4 6.3,-38.1 31.5,-12.7 25.2,-12.7 33.6,20.3 8.4,33 109.3,45.7 37.9,78.7 -71.5,33 -77.8,45.7 -46.3,58.4 31.5,12.7 -33.6,12.7 -58.8,10.2"
         style="fill:#ffe650;fill-opacity:1;fill-rule:nonzero;stroke:none"
         transform="matrix(0.13333333,0,0,-0.13333333,0,2666.6667)" />
      <path
         id="path54"
         d="m 13227.6,2457 c 0,0 43.8,-46.5 43.8,-79.4 0,-32.9 -60.3,-11 -24.6,-38.4 35.6,-27.4 87.6,21.9 73.9,-27.4 -13.7,-49.3 13.7,-60.2 27.4,-8.2 13.7,52.1 2.7,60.3 -38.3,90.4 -41.1,30.2 -65.8,57.5 -82.2,63"
         style="fill:#ffe650;fill-opacity:1;fill-rule:nonzero;stroke:none"
         transform="matrix(0.13333333,0,0,-0.13333333,0,2666.6667)" />
      <path
         id="path55"
         d="m 13627.5,2714.5 c 0,0 -10.9,-104.1 -54.8,-134.2 -43.8,-30.1 -30.1,0 24.7,-52 54.8,-52.1 54.8,-109.6 54.8,-109.6 0,0 60.3,43.8 21.9,87.6 -38.3,43.9 -43.8,82.2 -43.8,82.2 21.9,30.2 8.2,93.2 -2.8,126"
         style="fill:#ffe650;fill-opacity:1;fill-rule:nonzero;stroke:none"
         transform="matrix(0.13333333,0,0,-0.13333333,0,2666.6667)" />
      <path
         id="path56"
         d="m 12740,1996.8 c 0,0 -24.7,-46.6 -74,-32.9 -49.3,13.7 -71.2,8.3 -46.6,-38.3 24.7,-46.6 74,5.5 63,-32.9 -10.9,-38.3 -57.5,-8.2 -57.5,-38.3 0,-30.2 11,-46.6 11,-46.6 h 98.6 c 0,0 76.7,21.9 43.8,65.7 -32.9,43.9 -38.3,123.3 -38.3,123.3"
         style="fill:#ffe650;fill-opacity:1;fill-rule:nonzero;stroke:none"
         transform="matrix(0.13333333,0,0,-0.13333333,0,2666.6667)" />
      <path
         id="path57"
         d="m 13383.7,2018.7 c 0,0 43.9,-65.7 13.7,-87.6 -30.1,-22 -93.1,-27.4 -115,-65.8 -22,-38.3 5.4,-57.5 5.4,-57.5 h 169.9 c 0,0 -93.2,24.6 -54.8,49.3 38.4,24.6 54.8,65.7 46.6,98.6 -8.2,32.9 -65.8,63 -65.8,63"
         style="fill:#ffe650;fill-opacity:1;fill-rule:nonzero;stroke:none"
         transform="matrix(0.13333333,0,0,-0.13333333,0,2666.6667)" />
      <path
         id="path58"
         d="m 13838.5,2158.4 c 0,0 -74,-13.7 -98.6,-76.7 -24.7,-63 112.3,-54.8 54.7,-95.9 -57.5,-41 8.3,-87.6 -57.5,-93.1 -65.7,-5.5 -93.1,-84.9 -93.1,-84.9 h 413.6 c 0,0 -112.3,46.6 -57.5,76.7 54.8,30.1 82.2,131.5 -5.5,104.1 -87.6,-27.4 -142.4,-16.4 -90.4,30.1 52.1,46.6 -30.1,54.8 -68.5,52.1 -38.3,-2.8 21.9,60.2 74,41.1 52,-19.2 -2.7,54.7 -2.7,54.7 l 2.7,65.8 c 0,0 -19.2,-63 -71.2,-74"
         style="fill:#ffe650;fill-opacity:1;fill-rule:nonzero;stroke:none"
         transform="matrix(0.13333333,0,0,-0.13333333,0,2666.6667)" />
      <path
         id="path59"
         d="m 14282.3,2325.5 c 0,0 -76.7,-63 -93.2,-41.1 -16.4,22 -18.9,-53.4 -2.7,-68.4 38.3,-35.7 30.1,63 60.3,54.7 30.1,-8.2 35.6,54.8 35.6,54.8"
         style="fill:#ffe650;fill-opacity:1;fill-rule:nonzero;stroke:none"
         transform="matrix(0.13333333,0,0,-0.13333333,0,2666.6667)" />
      <path
         id="path60"
         d="m 14235.7,2002.3 c 0,0 27.4,-71.2 -16.4,-87.7 -43.9,-16.4 -71.3,-27.4 -43.9,-57.5 27.4,-30.1 41.1,-46.6 41.1,-46.6 h 79.5 c 0,0 -38.4,16.5 -43.9,46.6 -5.4,30.1 60.3,-2.7 41.1,38.3 -19.2,41.1 -35.6,85 -57.5,106.9"
         style="fill:#ffe650;fill-opacity:1;fill-rule:nonzero;stroke:none"
         transform="matrix(0.13333333,0,0,-0.13333333,0,2666.6667)" />
      <path
         id="path61"
         d="m 14643.9,1810.5 c 0,0 16.4,123.3 134.2,115.1 117.8,-8.2 213.7,-54.8 238.3,10.9 24.7,65.8 -24.6,52.1 -24.6,52.1 0,0 41.1,71.2 71.2,21.9 30.1,-49.3 -27.4,-101.4 8.2,-117.8 35.6,-16.4 21.9,35.6 60.3,54.8 38.4,19.2 63,-24.7 63,-24.7 0,0 -71.2,11 -65.7,-27.4 5.4,-38.3 10.9,-68.4 -22,-71.2 -32.8,-2.7 -57.5,-16.4 -57.5,-16.4 l -405.4,2.7"
         style="fill:#ffd45a;fill-opacity:1;fill-rule:nonzero;stroke:none"
         transform="matrix(0.13333333,0,0,-0.13333333,0,2666.6667)" />
      <path
         id="path62"
         d="m 14915.1,2741.9 c 0,0 -60.3,-95.9 -93.2,-57.5 -32.8,38.4 -63,-57.5 24.7,-57.5 87.7,0 134.2,-35.6 109.6,-57.6 -24.7,-21.9 32.8,-60.2 32.8,-60.2 0,0 -27.4,21.9 8.3,52 35.6,30.2 65.7,68.5 0,82.2 -65.8,13.7 -79.5,0 -57.6,60.3 0,0 -5.4,30.1 -24.6,38.3"
         style="fill:#ffe650;fill-opacity:1;fill-rule:nonzero;stroke:none"
         transform="matrix(0.13333333,0,0,-0.13333333,0,2666.6667)" />
      <path
         id="path63"
         d="m 15556.1,2676.2 c -24.6,-17.4 -52,-112.3 13.7,-153.4 65.7,-41.1 95.9,-57.6 79.5,-115.1 -16.5,-57.5 101.3,-82.2 101.3,-82.2 0,0 -14,82.2 35.6,68.5 79.5,-21.9 104.1,16.5 109.6,71.2 5.5,54.8 -54.8,71.3 -32.9,104.1 21.9,32.9 46.6,24.7 46.6,24.7 0,0 -96,19.6 -84.9,-52 10.9,-71.3 -2.8,-82.2 -30.2,-82.2 -0.2,0 -0.5,0 -0.8,0 -41.1,0.4 -76.1,29.6 -87,69.3 -11.2,40.9 -31.7,85.2 -65.6,59.4 -57.5,-43.8 -82.2,24.7 -60.2,41.1 21.9,16.4 43.8,13.7 43.8,13.7 0,0 -27.4,61.9 -68.5,32.9"
         style="fill:#ffe650;fill-opacity:1;fill-rule:nonzero;stroke:none"
         transform="matrix(0.13333333,0,0,-0.13333333,0,2666.6667)" />
      <path
         id="path64"
         d="m 15528.7,1810.5 c 0,0 -43.8,126 60.3,120.6 104.1,-5.5 235.6,-63 241.1,5.4 5.4,68.5 8.2,76.7 8.2,76.7 0,0 52,-30.1 38.3,-84.9 -13.7,-54.8 60.3,-84.9 131.5,-54.8 71.2,30.2 30.2,98.7 84.9,115.1 54.8,16.4 104.1,-21.9 104.1,-21.9 0,0 -87.6,-2.8 -87.6,-32.9 0,-30.1 38.3,-49.3 19.2,-74 -19.2,-24.6 123.2,-5.4 79.4,38.4 -43.8,43.8 -38.4,21.9 -38.4,21.9 0,0 30.2,41.1 71.3,24.7 41.1,-16.5 73.9,-63.1 60.2,-82.2 -13.7,-19.2 -54.8,-57.6 -54.8,-57.6 l -717.7,5.5"
         style="fill:#ffd45a;fill-opacity:1;fill-rule:nonzero;stroke:none"
         transform="matrix(0.13333333,0,0,-0.13333333,0,2666.6667)" />
      <path
         id="path65"
         d="m 16334.1,2498.1 c 0,0 54.8,-79.4 120.5,-82.2 65.8,-2.7 117.9,-38.3 98.7,-98.6 -19.2,-60.2 -65.8,-19.2 -76.7,-87.6 -11,-68.5 41.1,-2.8 35.6,-41.1 -5.5,-38.4 -54.8,21.9 -57.6,-22 -2.7,-43.8 0,-54.7 0,-54.7 0,0 -134.2,180.8 -52,191.7 82.2,11 101.4,38.4 46.6,54.8 -54.8,16.4 -82.2,13.7 -98.7,63 -16.4,49.3 -16.4,76.7 -16.4,76.7"
         style="fill:#ffe650;fill-opacity:1;fill-rule:nonzero;stroke:none"
         transform="matrix(0.13333333,0,0,-0.13333333,0,2666.6667)" />
      <path
         id="path66"
         d="m 16668.3,1994.1 c 0,0 52.1,-65.8 8.2,-87.7 -43.8,-21.9 -41.1,-95.9 -41.1,-95.9 h 863 c 0,0 -52.1,46.6 -93.2,38.4 -41.1,-8.2 -123.2,-16.5 -115,19.2 8.2,35.6 19.2,79.4 -2.8,87.6 0,0 -2.7,-57.5 -30.1,-52 -27.4,5.4 -87.7,0 -82.2,-27.4 5.5,-27.4 -82.2,-13.7 -71.2,27.4 11,41.1 16.4,63 -11,87.6 -27.4,24.7 -30.1,84.9 -5.4,112.3 24.6,27.4 -5.5,74 -5.5,74 0,0 0,-65.7 -21.9,-79.4 -22,-13.7 -38.4,-52.1 -24.7,-93.2 13.7,-41.1 13.7,-109.6 -5.5,-98.6 -19.1,11 -8.2,74 -27.4,90.4 -19.1,16.4 -41.1,19.2 -41.1,19.2 0,0 41.1,-60.3 22,-82.2 -19.2,-21.9 -57.6,-19.2 -43.9,-52.1 13.7,-32.8 -41.1,-57.5 -57.5,-32.8 -16.4,24.6 -68.5,38.3 -74,10.9 -5.4,-27.4 -95.8,-10.9 -68.4,16.5 27.4,27.4 -5.5,101.3 -71.3,117.8"
         style="fill:#ffe650;fill-opacity:1;fill-rule:nonzero;stroke:none"
         transform="matrix(0.13333333,0,0,-0.13333333,0,2666.6667)" />
      <path
         id="path67"
         d="m 17186.1,2607.7 c 0,0 98.6,-104.1 136.9,-104.1 38.4,0 87.7,-27.4 71.3,-101.4 -16.5,-73.9 -41.1,-93.1 -30.2,-131.5 11,-38.3 30.2,-63 8.3,-82.1 -22,-19.2 -30.2,-49.3 -30.2,-49.3 0,0 -30.1,19.1 -16.4,65.7 13.7,46.6 -16.4,71.2 -21.9,109.6 -5.5,38.3 30.1,19.2 30.1,82.2 0,63 -13.7,54.7 -82.2,101.3 -68.5,46.6 -65.7,109.6 -65.7,109.6"
         style="fill:#ffe650;fill-opacity:1;fill-rule:nonzero;stroke:none"
         transform="matrix(0.13333333,0,0,-0.13333333,0,2666.6667)" />
      <path
         id="path68"
         d="m 17794.2,1807.8 c 0,0 -32.8,115 -101.3,90.4 -68.5,-24.7 -158.9,-8.2 -158.9,46.6 0,54.7 52,49.3 52,49.3 0,0 -38.3,-49.3 -2.7,-52.1 35.6,-2.7 137,60.3 197.2,30.2 60.3,-30.2 115.1,-82.2 128.8,-43.9 13.7,38.4 -24.7,82.2 -57.5,82.2 -32.9,0 8.2,57.5 8.2,57.5 0,0 -16.4,-38.3 19.2,-35.6 35.6,2.8 65.7,0 84.9,-35.6 19.2,-35.6 93.1,-11 60.3,35.6 -32.9,46.6 -85,126 -49.4,164.4 35.7,38.3 57.6,24.6 57.6,24.6 0,0 -46.6,-32.8 -19.2,-68.4 27.4,-35.7 68.5,-57.6 74,-87.7 5.4,-30.1 27.4,24.6 71.2,32.9 43.8,8.2 106.8,13.7 101.3,57.5 -5.4,43.8 13.7,76.7 13.7,76.7 0,0 -13.7,-43.8 0,-54.8 13.7,-11 30.2,-65.7 -2.7,-79.4 -32.9,-13.7 -93.1,-13.7 -134.2,-68.5 -41.1,-54.8 -54.8,-95.9 -2.8,-115.1 52.1,-19.2 8.2,-57.5 8.2,-57.5 0,0 65.8,-49.3 101.4,-16.4 35.6,32.8 112.3,65.7 134.2,57.5 22,-8.2 43.9,38.3 43.9,38.3 0,0 24.6,-43.8 -11,-65.7 -35.6,-21.9 24.7,-46.6 43.8,-21.9 19.2,24.6 27.4,65.7 60.3,65.7 32.9,0 52.1,-32.9 52.1,-32.9 0,0 -65.8,16.5 -52.1,-10.9 13.7,-27.4 76.7,-35.6 98.6,5.5 22,41.1 11,104.1 11,104.1 0,0 54.8,-27.4 46.6,-68.5 -8.3,-41.1 24.6,-82.2 49.3,-54.8 24.6,27.4 24.6,84.9 73.9,95.9 49.3,10.9 106.9,-35.6 106.9,-35.6 0,0 -76.7,30.1 -79.5,-8.3 -2.7,-38.3 85,-16.4 85,-49.3 0,-32.8 -24.7,-54.8 -24.7,-54.8 l -1087.6,2.8"
         style="fill:#ffd45a;fill-opacity:1;fill-rule:nonzero;stroke:none"
         transform="matrix(0.13333333,0,0,-0.13333333,0,2666.6667)" />
      <path
         id="path69"
         d="m 18339.4,2591.3 c -11,-54.8 -46.6,-106.9 -21.9,-115.1 24.6,-8.2 68.5,-27.4 41.1,-57.5 -27.4,-30.2 -24.7,-54.8 -24.7,-54.8 0,0 30.1,49.3 63,68.5 32.9,19.1 57.5,79.4 13.7,87.6 -43.8,8.3 -24.6,8.3 -5.5,63 19.2,54.8 -54.7,63 -65.7,8.3"
         style="fill:#ffe650;fill-opacity:1;fill-rule:nonzero;stroke:none"
         transform="matrix(0.13333333,0,0,-0.13333333,0,2666.6667)" />
      <path
         id="path70"
         d="m 18670.9,2498.1 c 0,0 60.2,5.5 65.7,-49.3 5.5,-54.8 -16.4,-24.6 -13.7,-76.7 2.7,-52 24.7,-76.7 24.7,-76.7 0,0 -38.4,2.7 -46.6,38.4 -8.2,35.6 41.1,79.4 0,104.1 -41.1,24.6 -30.1,60.2 -30.1,60.2"
         style="fill:#ffe650;fill-opacity:1;fill-rule:nonzero;stroke:none"
         transform="matrix(0.13333333,0,0,-0.13333333,0,2666.6667)" />
      <path
         id="path71"
         d="m 19180.4,2596.7 c 0,0 11,-115 90.4,-120.5 51.9,-3.6 137,-8.2 115.1,-57.5 -22,-49.3 -43.9,-79.5 -43.9,-79.5 -16.4,24.7 -30.1,-41.1 5.5,-54.8 35.6,-13.7 -11,-73.9 -11,-73.9 0,0 13.7,43.8 -5.4,54.8 -19.2,10.9 -51,71.7 -41.1,101.3 10.9,32.9 71.2,52.1 5.5,54.8 -65.8,2.8 -109.6,38.4 -123.3,79.5 -13.7,41.1 8.2,95.8 8.2,95.8"
         style="fill:#ffe650;fill-opacity:1;fill-rule:nonzero;stroke:none"
         transform="matrix(0.13333333,0,0,-0.13333333,0,2666.6667)" />
      <path
         id="path72"
         d="m 19188.6,1955.7 -10.9,-41.1 c 24.6,-41.1 112.3,5.5 128.7,-19.2 16.5,-24.6 142.5,-13.7 150.7,38.4 8.2,52 46.6,76.7 46.6,76.7 0,0 38.3,-145.2 112.3,-115.1 73.9,30.2 32.8,93.2 32.8,93.2 0,0 76.7,-13.7 76.7,-63 0,-49.3 60.3,-60.3 74,-32.9 13.7,27.4 16.4,79.5 68.5,74 52,-5.5 52,-43.9 52,-43.9 0,0 -30.1,32.9 -49.3,11 -19.1,-21.9 5.5,-52.1 2.8,-82.2 -2.8,-30.1 -30.2,-41.1 -30.2,-41.1 h -882.1 c 0,0 93.2,21.9 123.3,57.6 30.2,35.6 8.2,65.7 5.5,98.6 -2.7,32.8 98.6,-11 98.6,-11"
         style="fill:#ffe650;fill-opacity:1;fill-rule:nonzero;stroke:none"
         transform="matrix(0.13333333,0,0,-0.13333333,0,2666.6667)" />
      <path
         id="path73"
         d="m 20065.2,2010.5 c 22,-8.2 62.2,-46.3 49.4,-84.9 -13.8,-41.1 131.5,-95.9 172.5,-49.3 41.1,46.5 65.5,90.1 49.3,112.3 -21.9,30.1 35.7,24.6 57.6,-16.4 21.9,-41.1 68.5,-38.4 73.9,0 5.5,38.3 65.8,41 65.8,41 0,0 -63,-49.3 -35.6,-65.7 27.4,-16.4 57.5,-68.5 5.5,-65.8 -52.1,2.8 -112.4,41.1 -123.3,5.5 -11,-35.6 208.2,-87.6 205.4,-21.9 -2.7,65.8 22,90.4 79.5,84.9 57.5,-5.4 98.6,19.2 82.2,60.3 -16.5,41.1 19.1,87.7 19.1,87.7 0,0 -21.9,-54.8 -2.7,-68.5 19.2,-13.7 49.3,-128.8 0,-134.3 -49.3,-5.4 -87.7,-19.1 -74,-41 13.7,-22 30.2,8.2 57.6,-2.8 27.4,-10.9 19.1,-43.8 19.1,-43.8 l -851.9,-2.8 c 0,0 115,11 98.6,54.8 -16.4,43.9 -68.5,85 -46.6,131.5 21.9,46.6 52.1,57.6 52.1,57.6 0,0 -32.9,-131.5 16.4,-126.1 49.3,5.5 30.1,87.7 30.1,87.7"
         style="fill:#ffe650;fill-opacity:1;fill-rule:nonzero;stroke:none"
         transform="matrix(0.13333333,0,0,-0.13333333,0,2666.6667)" />
      <path
         id="path74"
         d="m 20536.4,2777.5 c 0,0 60.3,-46.5 38.4,-71.2 -21.9,-24.6 -32.9,-41.1 -24.7,-76.7 8.2,-35.6 -5.5,-74 -5.5,-74 0,0 65.8,49.4 49.4,79.5 -16.5,30.1 5.4,27.4 13.7,57.5 8.2,30.2 8.2,82.2 -71.3,84.9"
         style="fill:#ffe650;fill-opacity:1;fill-rule:nonzero;stroke:none"
         transform="matrix(0.13333333,0,0,-0.13333333,0,2666.6667)" />
      <path
         id="path75"
         d="m 1535.44,1809.6 c -16.44,-5.5 -180.8,356.1 76.7,520.5 257.51,164.4 224.64,284.9 164.37,372.6 -60.26,87.6 -191.76,76.7 -191.76,76.7 0,0 109.58,98.6 224.63,27.4 115.06,-71.3 219.16,-284.9 65.75,-531.5 -153.41,-246.5 312.3,-186.3 219.16,71.2 -93.15,257.5 10.95,345.2 10.95,345.2 0,0 -27.39,-142.4 38.35,-158.9 65.75,-16.4 263,71.2 109.58,191.8 -153.4,120.5 -169.84,246.5 -32.87,334.2 0,0 -87.66,-147.9 16.44,-208.2 104.09,-60.3 208.2,-131.5 224.63,-230.1 16.44,-98.6 -93.14,-191.8 -93.14,-191.8 0,0 328.74,-38.3 213.67,158.9 -115.05,197.2 -98.61,263 -27.39,312.3 71.23,49.3 142.46,-32.9 142.46,-32.9 0,0 -120.54,22 -98.63,-38.3 21.92,-60.3 197.25,-241.1 208.2,-372.6 10.96,-131.5 -301.33,-230.1 -87.66,-301.3 213.68,-71.3 328.74,-38.4 262.99,153.4 -65.75,191.7 -224.64,394.5 -104.1,432.8 120.54,38.4 147.93,98.6 54.79,126 0,0 169.84,76.7 186.28,-60.2 16.44,-137 -224.63,-213.7 -38.35,-252.1 186.28,-38.3 43.83,137 120.54,191.8 76.7,54.8 115.05,-11 115.05,-11 0,0 -98.62,5.5 -82.18,-76.7 16.43,-82.1 87.66,-98.6 54.79,-180.8 -32.88,-82.1 -109.58,-43.8 -115.06,-126 -5.48,-82.2 98.62,-224.6 158.88,-126 60.27,98.6 -54.78,120.5 -54.78,120.5 0,0 126.01,65.8 175.32,-54.8 49.31,-120.5 -93.14,-186.2 -43.83,-241 49.31,-54.8 279.43,82.2 153.41,257.5 -126.01,175.3 -104.1,295.8 27.39,378 0,0 -76.7,-115 -10.95,-175.3 65.74,-60.3 93.14,-54.8 169.85,-169.8 76.7,-115.1 -60.27,-164.4 27.39,-252.1 87.66,-87.6 279.42,202.7 115.05,350.7 -164.36,147.9 76.71,273.9 10.96,339.7 -65.74,65.7 -142.45,16.4 -142.45,16.4 0,0 115.06,126 197.24,54.8 82.19,-71.2 93.14,-126 65.75,-208.2 -27.39,-82.2 120.53,-164.4 126.01,-71.2 5.49,93.1 -16.43,224.6 54.79,246.5 71.23,21.9 126.02,-54.8 126.02,-54.8 0,0 -126.02,5.5 -104.1,-71.2 21.92,-76.7 104.1,-120.5 76.7,-213.7 -27.39,-93.1 147.93,-87.6 115.06,16.5 -32.88,104.1 87.66,164.3 87.66,164.3 0,0 -60.26,-49.3 -32.87,-104.1 27.39,-54.8 82.18,-38.3 54.79,-115 -27.4,-76.7 109.57,-87.7 98.62,-32.9 -10.96,54.8 -49.31,82.2 -49.31,82.2 0,0 158.89,-16.4 120.53,-142.5 -38.35,-126 -158.88,-175.3 -10.95,-279.4 147.93,-104.1 540.28,41.7 367.08,186.3 -170.94,142.7 -192.86,307.1 -110.67,438.6 0,0 -31.78,-115.3 33.97,-175.6 65.74,-60.3 169.85,-71.2 219.15,-180.8 49.31,-109.6 43.83,-131.5 43.83,-131.5 0,0 104.1,219.1 -27.39,301.3 -131.5,82.2 -186.01,163 -116.15,255.1 60.27,79.4 218.27,0.7 131.49,164.3 -62.2,117.3 -119.44,106.6 -108.48,210.7 10.95,104.1 109.58,115.1 109.58,115.1 0,0 -61.36,-65.5 -12.06,-142.2 50.63,-78.8 54.79,-68.5 123.28,-134.3 61.91,-59.4 60.27,-153.4 4.62,-215.2 -37.71,-41.8 27.04,-106.6 75.49,-77.8 19.54,11.6 37.35,36.4 22.34,76.4 -44.01,117.1 65.57,124.4 65.57,124.4 -29.22,-69.4 35.15,-93.3 29.22,-175.3 -7.51,-103.8 -67.39,-124.5 -105.75,-157.3 -38.35,-32.9 -84.29,-105.3 43.84,-142.5 169.84,-49.3 301.34,-257.5 219.15,-356.1 -82.18,-98.6 -60.27,-71.2 -60.27,-71.2 0,0 262.99,38.3 191.77,219.1 -71.23,180.8 -213.68,257.5 -175.33,345.2 38.35,87.6 109.58,115 109.58,115 0,0 -74.97,-117.7 -38.35,-164.3 60.26,-76.7 98.62,-104.1 158.89,-191.8 60.26,-87.7 54.78,-137 54.78,-137 0,0 32.88,197.3 -60.26,284.9 -93.15,87.7 -71.23,241.1 -21.92,312.3 49.31,71.3 16.44,142.5 -32.87,158.9 -49.31,16.5 -82.19,5.5 -82.19,5.5 0,0 82.19,98.6 158.89,32.9 76.7,-65.8 87.66,-153.4 60.27,-241.1 -27.39,-87.7 120.54,32.9 93.14,137 0,0 54.79,-54.8 38.35,-169.9 -7.31,-51.2 -17.02,-88.2 -25.53,-113.6 -4.63,-13.7 11.25,-25.3 22.91,-16.6 46.13,34.2 112.09,94.3 101.25,152.1 0,0 93.14,-43.8 104.09,-175.3 10.96,-131.5 -153.41,-273.9 -5.48,-345.1 147.93,-71.3 314.77,127.1 219.16,158.8 -50.41,16.7 -104.1,11 -104.1,11 0,0 103,98.9 168.75,27.7 65.75,-71.3 23.01,-159.2 23.01,-159.2 0,0 147.93,87.7 21.92,208.2 -126.02,120.5 93.14,323.3 93.14,323.3 0,0 -93.14,-131.5 -5.48,-213.7 87.66,-82.2 191.76,-54.8 224.63,-208.2 32.88,-153.4 -32.87,-219.2 -32.87,-219.2 0,0 131.49,11 115.06,120.6 -16.44,109.5 -131.5,268.4 -27.4,350.6 104.11,82.2 158.89,-60.3 158.89,-60.3 0,0 -38.35,43.9 -82.18,5.5 -43.83,-38.3 -49.31,-153.4 27.4,-202.7 76.7,-49.3 82.17,109.6 82.17,109.6 0,0 60.28,-16.5 60.28,-104.1 0,-87.7 -191.77,-169.9 -115.06,-252.1 76.7,-82.1 361.61,-144.2 449.27,177.2 87.66,321.4 -277.6,277.6 -270.3,445.6 7.31,168 233.77,190 233.77,190 0,0 -182.63,-124.2 -109.58,-182.7 73.05,-58.4 168.02,-21.9 270.3,-138.8 102.27,-116.9 131.49,-284.9 87.66,-379.8 -43.84,-95 262.98,-175.4 204.54,73 -58.44,248.4 36.53,336 36.53,336 0,0 -36.53,-292.2 51.14,-299.5 87.66,-7.3 109.58,299.5 -43.83,409.1 0,0 153.41,7.3 189.93,-109.6 36.53,-116.8 36.53,-204.5 36.53,-204.5 0,0 109.58,160.7 21.91,277.6 -87.66,116.9 -87.66,226.5 7.3,270.3 94.98,43.8 124.19,-29.2 124.19,-29.2 0,0 -134.41,42.2 -117.97,-94.7 8.96,-74.7 125.28,-117.2 147.2,-248.7 21.91,-131.5 233.76,-124.2 175.32,7.3 -58.44,131.5 -131.49,80.4 -131.49,80.4 0,0 -21.92,138.8 138.79,109.6 160.72,-29.3 248.38,-190 219.16,-314.2 -29.22,-124.1 -262.98,-168 -160.71,-277.6 102.27,-109.5 411.56,68.8 284.9,248.4 -122.36,173.5 63.92,310.5 63.92,310.5 0,0 -85.83,-149.8 16.44,-186.3 102.27,-36.5 116.88,-160.7 87.66,-211.8 -29.22,-51.2 124.19,14.6 58.44,146.1 -65.75,131.5 -65.75,131.5 -65.75,131.5 0,0 94.97,-29.3 138.8,-124.2 43.83,-95 14.62,-190 14.62,-190 0,0 80.35,80.4 36.52,168.1 -43.83,87.6 -58.44,94.9 -43.83,87.6 14.61,-7.3 121.27,-87.4 121.27,-153.1 0,-65.8 -26.3,-80.6 -70.13,-197.5 -43.83,-116.9 139.52,-250 212.58,-103.9 73.05,146.1 65.01,213.4 -22.65,308.4 -87.67,95 -116.88,160.7 -29.22,277.6 87.66,116.9 -109.58,160.7 -109.58,160.7 0,0 165.19,50.1 254.59,-67.3 87.66,-115 -123.09,-137.2 -35.43,-232.2 87.66,-95 226.46,-87.7 175.32,58.5 -51.13,146.1 87.66,138.8 87.66,138.8 0,0 -80.35,-73.1 -43.83,-95 36.53,-21.9 87.66,-65.8 73.06,-146.1 -14.62,-80.4 -109.58,-95 -109.58,-182.6 0,-87.7 138.8,-190 175.32,-80.4 36.53,109.6 -87.66,95 -87.66,95 0,0 7.34,98.7 107.75,69.4 131.49,-38.4 -65.74,-235.6 202.69,-186.3 72.2,13.2 -215.36,172.9 -145.3,336.3 65.7,153.4 39.4,226.2 -33.65,248.1 -73.05,21.9 -14.61,131.5 94.95,160.7 0,0 -109.56,-87.7 -36.5,-95 73,-7.3 121.3,-92.8 106.7,-144 -14.7,-51.1 -70.2,-118.9 -19,-199.3 51.1,-80.4 146.1,-109.6 109.5,21.9 -36.5,131.5 -65.7,189.9 -7.3,270.3 58.5,80.4 -43.8,102.3 -43.8,102.3 0,0 109.6,21.9 102.3,-73.1 -7.3,-94.9 -43.9,-131.5 0,-168 43.8,-36.5 69.4,-126 58.4,-226.5 -8.1,-74.7 51.2,-182.6 73.1,-80.3 21.9,102.3 -36.6,189.9 -36.6,270.3 0,80.3 73.1,80.3 73.1,80.3 0,0 -58.4,-65.7 -14.6,-102.2 43.8,-36.6 94.9,-102.3 80.3,-204.6 -0.7,-5.5 -1.4,-10.6 -1.8,-15.5 -4.3,-47.2 66.4,-56 72.5,-9 1.5,11.7 1.9,25.3 0.6,41 -7.3,87.6 -42,93.1 -42,93.1 102.2,21.9 184,-140.3 140.6,-230.1 -41.4,-85.8 -213.7,-84 -89.5,-135.2 v 0 c 72.6,-29.9 154.6,13.6 170.5,90.5 13.1,63.1 16,133.5 -17.1,179.8 -73,102.3 21.9,204.6 21.9,204.6 0,0 -51.1,-138.8 14.6,-182.7 65.8,-43.8 87.7,-102.2 87.7,-102.2 0,0 -116.9,153.4 -51.1,263 65.7,109.5 -51.2,204.5 -51.2,204.5 0,0 121.3,18.5 179.7,-76.4 58.5,-95 -92,-252.3 -19,-288.9 73.1,-36.5 138.8,51.2 95,109.6 -43.8,58.5 -10.2,80.6 -10.2,80.6 0,0 83.3,29 105.2,-95.2 21.9,-124.2 -109.6,-189.9 36.5,-255.7 146.1,-65.7 189.8,-229.8 69.2,-257.2 -106.8,-24.3 -47.3,-100.7 -47.3,-100.7 0,0 87.7,-51.2 124.2,21.9 v 0 c 18.8,37.6 74.3,32.9 86.1,-7.4 7.5,-25.7 6.6,-53.8 -15.1,-78.2 -58.4,-65.7 -136.7,-60.5 -136.7,-60.5 l -9715.96,-5.5"
         style="fill:#ff4d49;fill-opacity:1;fill-rule:nonzero;stroke:none"
         transform="matrix(0.13333333,0,0,-0.13333333,0,2666.6667)" />
      <path
         id="path76"
         d="m 1535.44,1809.6 c 0,0 -25.57,151.6 62.09,239.3 87.67,87.6 54.79,164.3 54.79,164.3 0,0 104.1,-60.2 82.18,-137 -21.91,-76.7 93.15,-191.7 241.08,-65.7 147.93,126 246.54,32.9 273.94,120.5 27.4,87.7 -27.4,153.4 -27.4,153.4 0,0 104.11,-21.9 104.11,-104.1 0,-82.1 5.47,-126 54.79,-87.6 49.31,38.3 5.47,158.9 76.7,202.7 71.23,43.8 136.97,16.4 136.97,16.4 0,0 -98.62,-49.3 -98.62,-98.6 0,-49.3 65.75,-115 27.4,-186.3 -38.35,-71.2 16.43,-136.9 98.61,-104.1 82.19,32.9 27.4,104.1 115.06,115.1 87.66,11 82.19,-65.7 82.19,-65.7 0,0 -43.83,27.3 -65.75,-11 -21.91,-38.4 5.48,-98.6 76.7,-65.8 71.23,32.9 5.49,142.5 115.06,142.5 109.58,0 175.32,21.9 164.37,82.2 -10.96,60.2 -27.4,98.6 -27.4,98.6 0,0 158.89,-54.8 104.11,-147.9 -54.79,-93.2 -60.27,-153.4 -5.49,-137 54.79,16.4 38.36,93.1 76.71,131.5 38.35,38.3 82.18,21.9 82.18,21.9 0,0 -65.75,-38.3 -54.79,-82.2 10.96,-43.8 65.75,-60.2 32.88,-104.1 -32.88,-43.8 104.1,-65.7 104.1,11 0,76.7 147.93,71.2 147.93,71.2 0,0 -115.06,-65.7 -54.79,-76.7 60.27,-11 186.28,27.4 153.4,93.1 -32.87,65.8 -32.87,153.5 -5.47,202.8 27.39,49.3 43.83,60.2 43.83,60.2 0,0 -49.31,-126 -10.96,-169.8 38.36,-43.8 120.54,-49.3 109.58,-137 -10.96,-87.6 104.1,-71.2 142.45,65.8 38.35,136.9 115.06,180.8 191.76,180.8 76.71,0 76.71,142.4 -16.44,142.4 -93.13,0 -60.26,76.7 16.44,109.6 0,0 -49.31,-71.2 10.96,-60.3 60.27,11 126.01,-16.4 136.97,-82.2 10.96,-65.7 -32.88,-126 43.83,-115 76.71,10.9 0,104.1 65.75,142.4 65.74,38.4 71.23,98.7 71.23,98.7 0,0 38.35,-60.3 0,-93.2 -38.36,-32.9 -60.27,-60.3 -21.92,-109.6 38.35,-49.3 104.1,-76.7 38.35,-131.5 -65.74,-54.7 -115.06,-115 -16.43,-142.4 98.61,-27.4 65.74,98.6 65.74,98.6 0,0 82.19,0 82.19,-54.8 0,-54.8 10.95,-115 180.8,-126 169.85,-10.9 186.28,109.6 290.38,137 104.1,27.4 126.01,-60.3 202.72,0 76.71,60.2 32.87,164.3 32.87,164.3 0,0 109.58,-10.9 98.62,-98.6 -10.96,-87.6 60.27,-87.6 76.71,-27.4 16.43,60.3 38.35,175.4 -54.79,230.1 0,0 147.93,-10.9 158.89,-120.5 10.95,-109.6 0,-180.8 -76.71,-241.1 -76.7,-60.2 126.02,-43.8 224.64,5.5 98.62,49.3 180.8,158.9 262.99,104.1 82.18,-54.8 169.84,38.4 104.1,131.5 -65.75,93.2 -98.63,-10.9 -98.63,-10.9 0,0 -16.44,136.9 82.19,104.1 98.62,-32.9 147.93,-82.2 142.45,-164.4 -5.48,-82.2 16.43,-158.9 93.14,-109.6 76.7,49.3 71.23,186.3 191.76,153.4 0,0 -82.18,-38.3 -38.35,-82.2 43.83,-43.8 158.89,-5.4 142.45,76.7 -16.44,82.2 76.71,71.3 76.71,71.3 0,0 -54.79,-32.9 -32.88,-54.8 21.92,-21.9 87.66,-60.3 38.35,-126 -49.3,-65.8 -49.3,-131.5 27.4,-115.1 76.71,16.4 27.39,115.1 54.79,147.9 27.39,32.9 71.22,21.9 71.22,21.9 0,0 -54.78,-54.7 -27.39,-71.2 27.39,-16.4 82.18,-65.7 60.26,-104.1 -21.91,-38.3 98.63,38.4 65.76,93.2 -32.88,54.8 -32.88,54.8 -32.88,54.8 0,0 98.62,49.3 126.02,-49.4 27.39,-98.6 109.58,-120.5 175.32,-76.7 65.74,43.9 -10.95,202.8 -10.95,202.8 0,0 71.22,-22 93.13,-71.3 0,0 87.67,126 5.48,169.9 -82.18,43.8 38.35,131.5 38.35,131.5 0,0 -49.31,-71.3 -5.47,-87.7 43.83,-16.4 153.4,-49.3 120.53,-153.4 -32.87,-104.1 -38.35,-142.4 21.92,-158.9 60.26,-16.4 76.7,93.2 60.26,115.1 -16.43,21.9 27.4,76.7 76.71,93.1 0,0 -38.36,-43.8 -21.92,-76.7 16.44,-32.9 65.75,-43.8 49.31,-115 -16.43,-71.3 120.54,-98.7 142.46,0 21.91,98.6 65.74,49.3 175.32,43.8 109.58,-5.5 213.68,49.3 164.36,137 -49.3,87.6 -87.65,27.3 -87.65,27.3 0,0 5.47,87.7 93.14,49.4 87.66,-38.4 43.83,-148 98.62,-153.5 54.78,-5.4 -38.35,158.9 49.31,191.8 87.66,32.9 60.27,98.6 43.83,147.9 -16.44,49.3 54.79,115.1 54.79,115.1 0,0 -21.92,-98.6 16.43,-131.5 38.36,-32.9 54.79,-120.5 10.96,-158.9 -43.83,-38.3 -38.35,-82.2 5.48,-98.6 43.83,-16.4 175.33,54.8 126.01,153.4 -49.3,98.6 71.23,142.5 71.23,142.5 0,0 -76.71,-76.8 -32.87,-109.6 43.83,-32.9 120.53,-224.7 -60.27,-290.4 -180.81,-65.7 82.19,-208.2 164.36,-87.7 82.19,120.6 0,153.4 0,153.4 0,0 120.54,22 104.11,-76.7 -16.44,-98.6 109.57,-126 131.49,-10.9 21.91,115 120.54,137 120.54,137 0,0 -98.63,-142.5 -21.92,-169.9 76.7,-27.4 180.8,65.8 120.53,169.9 -60.26,104.1 38.35,147.9 38.35,147.9 0,0 -21.91,-87.7 16.44,-109.6 38.35,-21.9 136.98,-126 87.67,-202.7 -49.32,-76.7 104.1,-115.1 93.14,-27.4 -10.96,87.7 -10.96,153.4 60.26,202.7 71.23,49.3 180.81,27.4 180.81,27.4 0,0 -142.45,-82.2 -109.58,-164.4 32.87,-82.1 208.2,-164.3 257.51,-16.4 49.31,147.9 -109.58,60.3 -109.58,60.3 0,0 38.35,115 142.46,76.7 104.09,-38.4 27.38,-180.8 93.13,-197.3 65.75,-16.4 21.92,71.3 76.71,137 54.75,65.8 120.55,21.9 120.55,21.9 0,0 -109.59,-49.3 -65.8,-104.1 43.9,-54.8 137,-16.4 126.1,32.9 -11,49.3 -11,49.3 -11,49.3 0,0 60.3,-11 60.3,-54.8 0,-43.8 104.1,-10.9 65.7,54.8 -38.3,65.8 43.8,142.5 -16.4,219.2 -60.3,76.7 -126,65.7 -126,65.7 0,0 76.7,60.3 136.9,5.5 60.3,-54.8 98.7,-137 82.2,-202.7 -16.4,-65.8 27.4,-126 82.2,-120.6 54.8,5.5 76.7,120.6 27.4,175.4 -49.3,54.7 43.8,93.1 43.8,93.1 0,0 -32.9,-43.8 -16.4,-71.2 16.4,-27.4 98.6,-93.2 65.7,-153.4 -32.8,-60.3 -16.4,-180.8 43.9,-158.9 60.2,21.9 -27.4,131.5 71.2,153.4 0,0 16.4,-153.4 126,-65.8 109.6,87.7 16.4,153.4 16.4,153.4 0,0 104.1,54.8 115.1,-43.8 11,-98.6 -54.8,-147.9 -11,-158.9 43.9,-10.9 169.9,104.1 82.2,219.2 -87.6,115 -120.5,60.3 -120.5,60.3 0,0 49.3,109.5 153.4,49.3 104.1,-60.3 153.4,-219.2 109.6,-301.4 -43.9,-82.2 10.9,-126 60.2,-109.6 49.4,16.5 49.4,16.5 49.4,16.5 0,0 10.9,-71.2 -60.3,-71.2 -71.2,0 -93.2,-32.9 -93.2,-32.9 l -9562.46,1.8"
         style="fill:#ff9331;fill-opacity:1;fill-rule:nonzero;stroke:none"
         transform="matrix(0.13333333,0,0,-0.13333333,0,2666.6667)" />
      <path
         id="path77"
         d="m 1535.44,1809.6 c 0,0 36.52,120.5 146.1,98.6 109.58,-21.9 124.19,138.8 124.19,138.8 0,0 79.45,-42 57.53,-118.7 -21.92,-76.7 139.71,-52 90.4,30.2 -49.31,82.1 38.35,131.4 38.35,131.4 0,0 -46.57,-57.5 -8.22,-90.4 38.35,-32.8 98.62,-38.3 109.58,-87.6 10.96,-49.3 54.79,-71.2 84.93,-54.8 30.13,16.4 21.91,98.6 -32.88,120.5 0,0 63.01,16.5 95.88,-38.3 32.88,-54.8 -5.47,-134.3 -5.47,-134.3 l -700.39,4.6"
         style="fill:#ffd45a;fill-opacity:1;fill-rule:nonzero;stroke:none"
         transform="matrix(0.13333333,0,0,-0.13333333,0,2666.6667)" />
      <path
         id="path78"
         d="m 2454.98,2139.3 c 0,0 16.44,-115.1 -54.79,-123.3 -71.23,-8.2 -93.14,35.6 -93.14,35.6 0,0 -19.17,-49.3 13.7,-74 32.87,-24.6 104.09,-5.4 82.18,-41.1 -21.91,-35.6 -82.18,-27.4 -82.18,-27.4 0,0 98.62,-76.7 134.23,0 35.61,76.7 0,85 0,85 0,0 46.57,30.1 38.35,68.5 -8.21,38.3 -38.35,76.7 -38.35,76.7"
         style="fill:#ffe650;fill-opacity:1;fill-rule:nonzero;stroke:none"
         transform="matrix(0.13333333,0,0,-0.13333333,0,2666.6667)" />
      <path
         id="path79"
         d="m 2731.67,2226.9 c 0,0 -41.1,-150.7 -84.93,-112.3 -43.83,38.4 -30.13,71.2 -30.13,71.2 0,0 -52.05,-65.7 -21.92,-106.8 30.13,-41.1 41.1,-65.8 13.7,-79.5 -27.39,-13.7 84.92,22 68.49,46.6 -16.44,24.7 52.05,-21.9 60.26,54.8 8.22,76.7 -5.47,126 -5.47,126"
         style="fill:#ffe650;fill-opacity:1;fill-rule:nonzero;stroke:none"
         transform="matrix(0.13333333,0,0,-0.13333333,0,2666.6667)" />
      <path
         id="path80"
         d="m 2315.27,2509.1 c 0,0 -49.31,-71.2 -106.84,-57.6 -57.53,13.7 -79.45,2.8 -35.61,-41 43.83,-43.9 63.01,-115.1 79.44,-60.3 16.44,54.8 82.18,57.5 71.23,90.4 -10.96,32.9 -8.22,68.5 -8.22,68.5"
         style="fill:#ffe650;fill-opacity:1;fill-rule:nonzero;stroke:none"
         transform="matrix(0.13333333,0,0,-0.13333333,0,2666.6667)" />
      <path
         id="path81"
         d="m 1827.65,2448.8 c -46.58,-46.6 -136.98,-84.9 -117.8,-115 19.18,-30.2 90.4,-68.5 54.79,-87.7 -35.61,-19.2 109.58,0 73.96,49.3 -35.61,49.3 -76.7,63 -32.87,90.4 43.83,27.4 21.92,63 21.92,63"
         style="fill:#ffe650;fill-opacity:1;fill-rule:nonzero;stroke:none"
         transform="matrix(0.13333333,0,0,-0.13333333,0,2666.6667)" />
      <path
         id="path82"
         d="m 3020.27,2514.7 c -24.51,-2.5 -48.36,-46.9 -42.05,-49.5 6.3,-2.5 35.75,-8.9 35.75,-8.9 l 10.51,-7.6 c 0,0 52.54,-53.4 23.12,-63.5 -29.43,-10.2 -25.23,-25.4 6.3,-38.1 31.52,-12.7 25.22,-12.7 33.63,20.3 8.41,33 109.29,45.7 37.83,78.7 -71.46,33 -77.76,45.7 -46.24,58.4 31.53,12.7 -33.62,12.7 -58.85,10.2"
         style="fill:#ffe650;fill-opacity:1;fill-rule:nonzero;stroke:none"
         transform="matrix(0.13333333,0,0,-0.13333333,0,2666.6667)" />
      <path
         id="path83"
         d="m 3558.98,2457 c 0,0 43.83,-46.5 43.83,-79.4 0,-32.9 -60.27,-11 -24.66,-38.4 35.62,-27.4 87.67,21.9 73.97,-27.4 -13.7,-49.3 13.7,-60.2 27.39,-8.2 13.7,52.1 2.74,60.3 -38.35,90.4 -41.09,30.2 -65.74,57.5 -82.18,63"
         style="fill:#ffe650;fill-opacity:1;fill-rule:nonzero;stroke:none"
         transform="matrix(0.13333333,0,0,-0.13333333,0,2666.6667)" />
      <path
         id="path84"
         d="m 3958.94,2714.5 c 0,0 -10.96,-104.1 -54.79,-134.2 -43.83,-30.1 -30.14,0 24.65,-52 54.79,-52.1 54.79,-109.6 54.79,-109.6 0,0 60.27,43.8 21.92,87.6 -38.35,43.9 -43.84,82.2 -43.84,82.2 21.92,30.2 8.23,93.2 -2.73,126"
         style="fill:#ffe650;fill-opacity:1;fill-rule:nonzero;stroke:none"
         transform="matrix(0.13333333,0,0,-0.13333333,0,2666.6667)" />
      <path
         id="path85"
         d="m 3071.36,1996.8 c 0,0 -24.66,-46.6 -73.97,-32.9 -49.31,13.7 -71.22,8.3 -46.57,-38.3 24.66,-46.6 73.97,5.5 63.01,-32.9 -10.96,-38.3 -57.53,-8.2 -57.53,-38.3 0,-30.2 10.96,-46.6 10.96,-46.6 h 98.62 c 0,0 76.7,21.9 43.83,65.7 -32.87,43.9 -38.35,123.3 -38.35,123.3"
         style="fill:#ffe650;fill-opacity:1;fill-rule:nonzero;stroke:none"
         transform="matrix(0.13333333,0,0,-0.13333333,0,2666.6667)" />
      <path
         id="path86"
         d="m 3715.13,2018.7 c 0,0 43.83,-65.7 13.69,-87.6 -30.13,-22 -93.14,-27.4 -115.05,-65.8 -21.92,-38.3 5.48,-57.5 5.48,-57.5 h 169.84 c 0,0 -93.14,24.6 -54.78,49.3 38.35,24.6 54.78,65.7 46.56,98.6 -8.21,32.9 -65.74,63 -65.74,63"
         style="fill:#ffe650;fill-opacity:1;fill-rule:nonzero;stroke:none"
         transform="matrix(0.13333333,0,0,-0.13333333,0,2666.6667)" />
      <path
         id="path87"
         d="m 4169.88,2158.4 c 0,0 -73.97,-13.7 -98.63,-76.7 -24.65,-63 112.32,-54.8 54.79,-95.9 -57.52,-41 8.22,-87.6 -57.52,-93.1 -65.75,-5.5 -93.14,-84.9 -93.14,-84.9 h 413.65 c 0,0 -112.32,46.6 -57.53,76.7 54.79,30.1 82.19,131.5 -5.47,104.1 -87.67,-27.4 -142.46,-16.4 -90.4,30.1 52.04,46.6 -30.14,54.8 -68.49,52.1 -38.36,-2.8 21.91,60.2 73.96,41.1 52.05,-19.2 -2.74,54.7 -2.74,54.7 l 2.74,65.8 c 0,0 -19.18,-63 -71.22,-74"
         style="fill:#ffe650;fill-opacity:1;fill-rule:nonzero;stroke:none"
         transform="matrix(0.13333333,0,0,-0.13333333,0,2666.6667)" />
      <path
         id="path88"
         d="m 4613.66,2325.5 c 0,0 -76.7,-63 -93.14,-41.1 -16.43,22 -18.92,-53.4 -2.73,-68.4 38.35,-35.7 30.13,63 60.27,54.7 30.13,-8.2 35.6,54.8 35.6,54.8"
         style="fill:#ffe650;fill-opacity:1;fill-rule:nonzero;stroke:none"
         transform="matrix(0.13333333,0,0,-0.13333333,0,2666.6667)" />
      <path
         id="path89"
         d="m 4567.09,2002.3 c 0,0 27.4,-71.2 -16.43,-87.7 -43.83,-16.4 -71.23,-27.4 -43.83,-57.5 27.39,-30.1 41.09,-46.6 41.09,-46.6 h 79.44 c 0,0 -38.35,16.5 -43.83,46.6 -5.47,30.1 60.27,-2.7 41.09,38.3 -19.17,41.1 -35.61,85 -57.53,106.9"
         style="fill:#ffe650;fill-opacity:1;fill-rule:nonzero;stroke:none"
         transform="matrix(0.13333333,0,0,-0.13333333,0,2666.6667)" />
      <path
         id="path90"
         d="m 4975.27,1810.5 c 0,0 16.44,123.3 134.24,115.1 117.79,-8.2 213.67,-54.8 238.33,10.9 24.65,65.8 -24.66,52.1 -24.66,52.1 0,0 41.1,71.2 71.23,21.9 30.13,-49.3 -27.39,-101.4 8.22,-117.8 35.61,-16.4 21.91,35.6 60.27,54.8 38.35,19.2 63,-24.7 63,-24.7 0,0 -71.22,11 -65.74,-27.4 5.47,-38.3 10.95,-68.4 -21.92,-71.2 -32.87,-2.7 -57.53,-16.4 -57.53,-16.4 l -405.44,2.7"
         style="fill:#ffd45a;fill-opacity:1;fill-rule:nonzero;stroke:none"
         transform="matrix(0.13333333,0,0,-0.13333333,0,2666.6667)" />
      <path
         id="path91"
         d="m 5246.48,2741.9 c 0,0 -60.27,-95.9 -93.15,-57.5 -32.87,38.4 -63,-57.5 24.66,-57.5 87.66,0 134.24,-35.6 109.58,-57.6 -24.65,-21.9 32.87,-60.2 32.87,-60.2 0,0 -27.39,21.9 8.22,52 35.62,30.2 65.75,68.5 0,82.2 -65.74,13.7 -79.44,0 -57.53,60.3 0,0 -5.48,30.1 -24.65,38.3"
         style="fill:#ffe650;fill-opacity:1;fill-rule:nonzero;stroke:none"
         transform="matrix(0.13333333,0,0,-0.13333333,0,2666.6667)" />
      <path
         id="path92"
         d="m 5887.51,2676.2 c -24.63,-17.4 -52.05,-112.3 13.7,-153.4 65.75,-41.1 95.88,-57.6 79.44,-115.1 -16.44,-57.5 101.36,-82.2 101.36,-82.2 0,0 -14,82.2 35.62,68.5 79.44,-21.9 104.09,16.5 109.57,71.2 5.48,54.8 -54.79,71.3 -32.87,104.1 21.92,32.9 46.57,24.7 46.57,24.7 0,0 -95.95,19.6 -84.92,-52 10.95,-71.3 -2.74,-82.2 -30.14,-82.2 -0.27,0 -0.55,0 -0.83,0 -41.13,0.4 -76.1,29.6 -86.97,69.3 -11.21,40.9 -31.78,85.2 -65.61,59.4 -57.53,-43.8 -82.18,24.7 -60.27,41.1 21.92,16.4 43.84,13.7 43.84,13.7 0,0 -27.36,61.9 -68.49,32.9"
         style="fill:#ffe650;fill-opacity:1;fill-rule:nonzero;stroke:none"
         transform="matrix(0.13333333,0,0,-0.13333333,0,2666.6667)" />
      <path
         id="path93"
         d="m 5860.12,1810.5 c 0,0 -43.83,126 60.27,120.6 104.09,-5.5 235.59,-63 241.07,5.4 5.47,68.5 8.21,76.7 8.21,76.7 0,0 52.05,-30.1 38.36,-84.9 -13.7,-54.8 60.27,-84.9 131.49,-54.8 71.23,30.2 30.13,98.7 84.92,115.1 54.79,16.4 104.1,-21.9 104.1,-21.9 0,0 -87.66,-2.8 -87.66,-32.9 0,-30.1 38.35,-49.3 19.17,-74 -19.17,-24.6 123.28,-5.4 79.45,38.4 -43.83,43.8 -38.35,21.9 -38.35,21.9 0,0 30.13,41.1 71.22,24.7 41.1,-16.5 73.97,-63.1 60.27,-82.2 -13.69,-19.2 -54.79,-57.6 -54.79,-57.6 l -717.73,5.5"
         style="fill:#ffd45a;fill-opacity:1;fill-rule:nonzero;stroke:none"
         transform="matrix(0.13333333,0,0,-0.13333333,0,2666.6667)" />
      <path
         id="path94"
         d="m 6665.52,2498.1 c 0,0 54.78,-79.4 120.52,-82.2 65.76,-2.7 117.81,-38.3 98.63,-98.6 -19.18,-60.2 -65.74,-19.2 -76.71,-87.6 -10.95,-68.5 41.1,-2.8 35.61,-41.1 -5.47,-38.4 -54.78,21.9 -57.53,-22 -2.73,-43.8 0,-54.7 0,-54.7 0,0 -134.22,180.8 -52.04,191.7 82.18,11 101.36,38.4 46.57,54.8 -54.79,16.4 -82.18,13.7 -98.62,63 -16.43,49.3 -16.43,76.7 -16.43,76.7"
         style="fill:#ffe650;fill-opacity:1;fill-rule:nonzero;stroke:none"
         transform="matrix(0.13333333,0,0,-0.13333333,0,2666.6667)" />
      <path
         id="path95"
         d="m 6999.73,1994.1 c 0,0 52.05,-65.8 8.21,-87.7 -43.83,-21.9 -41.08,-95.9 -41.08,-95.9 h 862.92 c 0,0 -52.05,46.6 -93.14,38.4 -41.09,-8.2 -123.28,-16.5 -115.06,19.2 8.22,35.6 19.18,79.4 -2.74,87.6 0,0 -2.74,-57.5 -30.13,-52 -27.4,5.4 -87.67,0 -82.19,-27.4 5.48,-27.4 -82.17,-13.7 -71.22,27.4 10.96,41.1 16.43,63 -10.95,87.6 -27.41,24.7 -30.14,84.9 -5.49,112.3 24.66,27.4 -5.48,74 -5.48,74 0,0 0,-65.7 -21.91,-79.4 -21.91,-13.7 -38.35,-52.1 -24.65,-93.2 13.69,-41.1 13.69,-109.6 -5.49,-98.6 -19.17,11 -8.21,74 -27.39,90.4 -19.17,16.4 -41.09,19.2 -41.09,19.2 0,0 41.09,-60.3 21.92,-82.2 -19.18,-21.9 -57.53,-19.2 -43.84,-52.1 13.7,-32.8 -41.09,-57.5 -57.53,-32.8 -16.43,24.6 -68.48,38.3 -73.96,10.9 -5.48,-27.4 -95.89,-10.9 -68.49,16.5 27.4,27.4 -5.48,101.3 -71.22,117.8"
         style="fill:#ffe650;fill-opacity:1;fill-rule:nonzero;stroke:none"
         transform="matrix(0.13333333,0,0,-0.13333333,0,2666.6667)" />
      <path
         id="path96"
         d="m 7517.48,2607.7 c 0,0 98.62,-104.1 136.97,-104.1 38.36,0 87.66,-27.4 71.23,-101.4 -16.44,-73.9 -41.09,-93.1 -30.13,-131.5 10.95,-38.3 30.13,-63 8.21,-82.1 -21.91,-19.2 -30.13,-49.3 -30.13,-49.3 0,0 -30.13,19.1 -16.43,65.7 13.69,46.6 -16.44,71.2 -21.92,109.6 -5.48,38.3 30.13,19.2 30.13,82.2 0,63 -13.7,54.7 -82.18,101.3 -68.48,46.6 -65.75,109.6 -65.75,109.6"
         style="fill:#ffe650;fill-opacity:1;fill-rule:nonzero;stroke:none"
         transform="matrix(0.13333333,0,0,-0.13333333,0,2666.6667)" />
      <path
         id="path97"
         d="m 8125.64,1807.8 c 0,0 -32.87,115 -101.36,90.4 -68.49,-24.7 -158.89,-8.2 -158.89,46.6 0,54.7 52.05,49.3 52.05,49.3 0,0 -38.35,-49.3 -2.73,-52.1 35.61,-2.7 136.96,60.3 197.23,30.2 60.27,-30.2 115.06,-82.2 128.76,-43.9 13.69,38.4 -24.66,82.2 -57.53,82.2 -32.87,0 8.22,57.5 8.22,57.5 0,0 -16.44,-38.3 19.18,-35.6 35.6,2.8 65.74,0 84.92,-35.6 19.17,-35.6 93.14,-11 60.26,35.6 -32.87,46.6 -84.92,126 -49.3,164.4 35.61,38.3 57.52,24.6 57.52,24.6 0,0 -46.57,-32.8 -19.18,-68.4 27.4,-35.7 68.49,-57.6 73.97,-87.7 5.48,-30.1 27.39,24.6 71.23,32.9 43.83,8.2 106.84,13.7 101.36,57.5 -5.48,43.8 13.7,76.7 13.7,76.7 0,0 -13.7,-43.8 0,-54.8 13.69,-11 30.13,-65.7 -2.75,-79.4 -32.87,-13.7 -93.13,-13.7 -134.23,-68.5 -41.09,-54.8 -54.79,-95.9 -2.74,-115.1 52.05,-19.2 8.22,-57.5 8.22,-57.5 0,0 65.75,-49.3 101.36,-16.4 35.61,32.8 112.32,65.7 134.24,57.5 21.91,-8.2 43.82,38.3 43.82,38.3 0,0 24.66,-43.8 -10.95,-65.7 -35.61,-21.9 24.65,-46.6 43.83,-21.9 19.17,24.6 27.39,65.7 60.26,65.7 32.88,0 52.05,-32.9 52.05,-32.9 0,0 -65.74,16.5 -52.05,-10.9 13.7,-27.4 76.71,-35.6 98.63,5.5 21.91,41.1 10.95,104.1 10.95,104.1 0,0 54.79,-27.4 46.58,-68.5 -8.23,-41.1 24.65,-82.2 49.31,-54.8 24.65,27.4 24.65,84.9 73.96,95.9 49.31,10.9 106.84,-35.6 106.84,-35.6 0,0 -76.71,30.1 -79.45,-8.3 -2.73,-38.3 84.93,-16.4 84.93,-49.3 0,-32.8 -24.66,-54.8 -24.66,-54.8 l -1087.56,2.8"
         style="fill:#ffd45a;fill-opacity:1;fill-rule:nonzero;stroke:none"
         transform="matrix(0.13333333,0,0,-0.13333333,0,2666.6667)" />
      <path
         id="path98"
         d="m 8670.79,2591.3 c -10.96,-54.8 -46.57,-106.9 -21.91,-115.1 24.65,-8.2 68.48,-27.4 41.09,-57.5 -27.4,-30.2 -24.66,-54.8 -24.66,-54.8 0,0 30.14,49.3 63.01,68.5 32.87,19.1 57.53,79.4 13.7,87.6 -43.84,8.3 -24.66,8.3 -5.49,63 19.18,54.8 -54.78,63 -65.74,8.3"
         style="fill:#ffe650;fill-opacity:1;fill-rule:nonzero;stroke:none"
         transform="matrix(0.13333333,0,0,-0.13333333,0,2666.6667)" />
      <path
         id="path99"
         d="m 9002.27,2498.1 c 0,0 60.26,5.5 65.74,-49.3 5.48,-54.8 -16.43,-24.6 -13.69,-76.7 2.73,-52 24.65,-76.7 24.65,-76.7 0,0 -38.35,2.7 -46.57,38.4 -8.22,35.6 41.09,79.4 0,104.1 -41.1,24.6 -30.13,60.2 -30.13,60.2"
         style="fill:#ffe650;fill-opacity:1;fill-rule:nonzero;stroke:none"
         transform="matrix(0.13333333,0,0,-0.13333333,0,2666.6667)" />
      <path
         id="path100"
         d="m 9511.8,2596.7 c 0,0 10.96,-115 90.4,-120.5 51.93,-3.6 136.98,-8.2 115.06,-57.5 -21.92,-49.3 -43.83,-79.5 -43.83,-79.5 -16.44,24.7 -30.13,-41.1 5.48,-54.8 35.61,-13.7 -10.96,-73.9 -10.96,-73.9 0,0 13.7,43.8 -5.48,54.8 -19.17,10.9 -50.97,71.7 -41.09,101.3 10.96,32.9 71.22,52.1 5.48,54.8 -65.75,2.8 -109.58,38.4 -123.28,79.5 -13.69,41.1 8.22,95.8 8.22,95.8"
         style="fill:#ffe650;fill-opacity:1;fill-rule:nonzero;stroke:none"
         transform="matrix(0.13333333,0,0,-0.13333333,0,2666.6667)" />
      <path
         id="path101"
         d="m 9520.02,1955.7 -10.96,-41.1 c 24.66,-41.1 112.32,5.5 128.76,-19.2 16.43,-24.6 142.45,-13.7 150.67,38.4 8.22,52 46.57,76.7 46.57,76.7 0,0 38.35,-145.2 112.31,-115.1 73.93,30.2 32.88,93.2 32.88,93.2 0,0 76.75,-13.7 76.75,-63 0,-49.3 60.2,-60.3 73.9,-32.9 13.7,27.4 16.5,79.5 68.5,74 52.1,-5.5 52.1,-43.9 52.1,-43.9 0,0 -30.2,32.9 -49.4,11 -19.1,-21.9 5.5,-52.1 2.8,-82.2 -2.8,-30.1 -30.2,-41.1 -30.2,-41.1 h -882.05 c 0,0 93.14,21.9 123.27,57.6 30.13,35.6 8.22,65.7 5.48,98.6 -2.74,32.8 98.62,-11 98.62,-11"
         style="fill:#ffe650;fill-opacity:1;fill-rule:nonzero;stroke:none"
         transform="matrix(0.13333333,0,0,-0.13333333,0,2666.6667)" />
      <path
         id="path102"
         d="m 10396.6,2010.5 c 22,-8.2 62.2,-46.3 49.4,-84.9 -13.7,-41.1 131.5,-95.9 172.5,-49.3 41.1,46.5 65.5,90.1 49.4,112.3 -22,30.1 35.6,24.6 57.5,-16.4 21.9,-41.1 68.5,-38.4 73.9,0 5.5,38.3 65.8,41 65.8,41 0,0 -63,-49.3 -35.6,-65.7 27.4,-16.4 57.5,-68.5 5.5,-65.8 -52.1,2.8 -112.4,41.1 -123.3,5.5 -11,-35.6 208.2,-87.6 205.4,-21.9 -2.7,65.8 22,90.4 79.5,84.9 57.5,-5.4 98.6,19.2 82.2,60.3 -16.5,41.1 19.1,87.7 19.1,87.7 0,0 -21.9,-54.8 -2.7,-68.5 19.2,-13.7 49.3,-128.8 0,-134.3 -49.3,-5.4 -87.7,-19.1 -74,-41 13.7,-22 30.2,8.2 57.6,-2.8 27.4,-10.9 19.1,-43.8 19.1,-43.8 L 10246,1805 c 0,0 115,11 98.6,54.8 -16.4,43.9 -68.5,85 -46.6,131.5 21.9,46.6 52.1,57.6 52.1,57.6 0,0 -32.9,-131.5 16.4,-126.1 49.3,5.5 30.1,87.7 30.1,87.7"
         style="fill:#ffe650;fill-opacity:1;fill-rule:nonzero;stroke:none"
         transform="matrix(0.13333333,0,0,-0.13333333,0,2666.6667)" />
      <path
         id="path103"
         d="m 10867.8,2777.5 c 0,0 60.3,-46.5 38.4,-71.2 -21.9,-24.6 -32.9,-41.1 -24.7,-76.7 8.2,-35.6 -5.5,-74 -5.5,-74 0,0 65.8,49.4 49.4,79.5 -16.5,30.1 5.4,27.4 13.7,57.5 8.2,30.2 8.2,82.2 -71.3,84.9"
         style="fill:#ffe650;fill-opacity:1;fill-rule:nonzero;stroke:none"
         transform="matrix(0.13333333,0,0,-0.13333333,0,2666.6667)" />
    </g>
  </g>
</svg>
