<svg id="visual" viewBox="0 0 1200 500" width="1200" height="500" xmlns="http://www.w3.org/2000/svg" xmlns:xlink="http://www.w3.org/1999/xlink" version="1.1"><path d="M0 134L16.7 130.3C33.3 126.7 66.7 119.3 100 110.3C133.3 101.3 166.7 90.7 200 85.7C233.3 80.7 266.7 81.3 300 91.8C333.3 102.3 366.7 122.7 400 132.2C433.3 141.7 466.7 140.3 500 128.8C533.3 117.3 566.7 95.7 600 84.7C633.3 73.7 666.7 73.3 700 82.8C733.3 92.3 766.7 111.7 800 111.7C833.3 111.7 866.7 92.3 900 93.2C933.3 94 966.7 115 1000 115.8C1033.3 116.7 1066.7 97.3 1100 84.7C1133.3 72 1166.7 66 1183.3 63L1200 60L1200 0L1183.3 0C1166.7 0 1133.3 0 1100 0C1066.7 0 1033.3 0 1000 0C966.7 0 933.3 0 900 0C866.7 0 833.3 0 800 0C766.7 0 733.3 0 700 0C666.7 0 633.3 0 600 0C566.7 0 533.3 0 500 0C466.7 0 433.3 0 400 0C366.7 0 333.3 0 300 0C266.7 0 233.3 0 200 0C166.7 0 133.3 0 100 0C66.7 0 33.3 0 16.7 0L0 0Z" fill="#A62D2d" stroke-linecap="round" stroke-linejoin="miter"></path></svg>